<svg width="171" height="171" viewBox="0 0 171 171" fill="none" xmlns="http://www.w3.org/2000/svg">
<path d="M31.9999 5.49999L32.4471 6.39442L31.9999 5.49999ZM123.5 56.9999L124.342 56.4605L123.5 56.9999ZM168.074 170.999L170.95 159.816L159.827 162.917L168.074 170.999ZM28.232 98.3286C27.644 97.6786 27.0665 97.0309 26.4993 96.3855L24.997 97.7057C25.5706 98.3584 26.1545 99.0133 26.7488 99.6703L28.232 98.3286ZM23.157 92.4643C22.0404 91.1119 20.9704 89.7703 19.9467 88.4397L18.3616 89.6592C19.3998 91.0086 20.4841 92.3682 21.6148 93.7377L23.157 92.4643ZM16.8894 84.3057C15.8752 82.8761 14.9158 81.46 14.0108 80.0576L12.3304 81.1421C13.2519 82.5701 14.2277 84.0104 15.2582 85.4629L16.8894 84.3057ZM11.3378 75.6842C10.4585 74.159 9.64549 72.6512 8.89795 71.1612L7.11031 72.058C7.87595 73.5841 8.70738 75.1259 9.60509 76.6831L11.3378 75.6842ZM6.75488 66.5175C6.07675 64.905 5.4783 63.3149 4.95829 61.7479L3.06007 62.3778C3.59717 63.9963 4.21403 65.6348 4.91127 67.2928L6.75488 66.5175ZM3.56759 56.8426C3.17144 55.1494 2.87123 53.4853 2.66515 51.8508L0.680855 52.101C0.896022 53.8075 1.20887 55.5402 1.62018 57.2983L3.56759 56.8426ZM2.32525 46.804C2.31372 45.0878 2.41209 43.4065 2.61827 41.7607L0.633785 41.5121C0.416449 43.247 0.313193 45.0158 0.325293 46.8174L2.32525 46.804ZM3.58846 36.8166C4.02669 35.1937 4.57785 33.6071 5.24037 32.0575L3.40138 31.2712C2.70239 32.9062 2.12043 34.5813 1.65762 36.2952L3.58846 36.8166ZM7.53573 27.5609C8.38569 26.1379 9.33834 24.7487 10.3927 23.394L8.81436 22.1656C7.71155 23.5826 6.71223 25.0394 5.8187 26.5354L7.53573 27.5609ZM13.7244 19.5733C14.8799 18.3829 16.1215 17.2226 17.4485 16.0933L16.1523 14.5702C14.7794 15.7386 13.4911 16.9421 12.2893 18.1803L13.7244 19.5733ZM21.458 12.9612C22.8107 11.9888 24.233 11.0427 25.7242 10.1235L24.6748 8.421C23.1454 9.36373 21.6835 10.3359 20.2906 11.3373L21.458 12.9612ZM30.1566 7.57913C30.9056 7.17832 31.6692 6.7834 32.4471 6.39442L31.5527 4.60556C30.7586 5.0026 29.9787 5.406 29.213 5.81572L30.1566 7.57913ZM32.4471 6.39442C33.2215 6.00724 33.9959 5.64794 34.7701 5.31574L33.9814 3.4778C33.1711 3.8255 32.3615 4.20119 31.5527 4.60556L32.4471 6.39442ZM39.5491 3.60112C41.2044 3.12124 42.8584 2.75788 44.5091 2.50373L44.2048 0.527022C42.469 0.794269 40.7307 1.17623 38.9922 1.68021L39.5491 3.60112ZM49.5637 2.05875C51.2613 2.0191 52.955 2.08809 54.643 2.25821L54.8435 0.268293C53.0763 0.0901809 51.3 0.017653 49.517 0.0592961L49.5637 2.05875ZM59.6719 3.06106C61.3225 3.42017 62.9659 3.87035 64.6001 4.40452L65.2215 2.5035C63.5264 1.94942 61.8175 1.48107 60.0971 1.10678L59.6719 3.06106ZM69.3869 6.21487C70.9429 6.88225 72.4882 7.62105 74.0207 8.42476L74.9496 6.65355C73.3739 5.8272 71.7818 5.06584 70.1753 4.3768L69.3869 6.21487ZM78.4885 10.9688C79.9383 11.8591 81.3743 12.8034 82.7946 13.7958L83.9401 12.1563C82.4893 11.1427 81.0204 10.1766 79.5351 9.26451L78.4885 10.9688ZM86.9454 16.8632C88.2949 17.9146 89.6277 19.0057 90.9423 20.1309L92.2428 18.6115C90.9062 17.4674 89.5496 16.3568 88.1746 15.2855L86.9454 16.8632ZM94.7993 23.5753C96.0598 24.7477 97.3008 25.9478 98.5207 27.1702L99.9363 25.7574C98.6998 24.5183 97.441 23.3009 96.1614 22.1108L94.7993 23.5753ZM102.114 30.8976C103.295 32.1636 104.452 33.4464 105.585 34.7406L107.09 33.4233C105.944 32.114 104.772 30.8157 103.577 29.5338L102.114 30.8976ZM108.942 38.6925C110.051 40.0364 111.132 41.3864 112.184 42.7365L113.762 41.5071C112.698 40.1429 111.606 38.7785 110.485 37.4198L108.942 38.6925ZM115.316 46.8682C116.359 48.2825 117.367 49.69 118.34 51.084L119.98 49.9395C118.998 48.5316 117.979 47.1099 116.926 45.6813L115.316 46.8682ZM121.25 55.3734C121.73 56.1017 122.2 56.824 122.658 57.5392L124.342 56.4605C123.879 55.7378 123.405 55.0081 122.92 54.2723L121.25 55.3734ZM122.658 57.5392C123.104 58.2352 123.549 58.9461 123.993 59.6712L125.698 58.6264C125.247 57.8905 124.795 57.1682 124.342 56.4605L122.658 57.5392ZM126.574 64.0568C127.395 65.5048 128.211 66.9961 129.023 68.5257L130.79 67.5881C129.97 66.0436 129.145 64.536 128.314 63.0707L126.574 64.0568ZM131.357 73.053C132.108 74.5506 132.854 76.077 133.594 77.628L135.399 76.7668C134.654 75.2048 133.902 73.6666 133.145 72.1565L131.357 73.053ZM135.749 82.2473C136.449 83.7819 137.144 85.3352 137.831 86.9032L139.663 86.1C138.971 84.5234 138.273 82.961 137.568 81.4169L135.749 82.2473ZM139.849 91.59C140.509 93.1518 141.163 94.7241 141.808 96.3031L143.66 95.5461C143.011 93.9601 142.355 92.3805 141.691 90.8111L139.849 91.59ZM143.715 101.039C144.343 102.623 144.962 104.209 145.573 105.796L147.439 105.077C146.826 103.485 146.204 101.892 145.574 100.302L143.715 101.039ZM147.387 110.57C147.987 112.173 148.578 113.771 149.159 115.361L151.037 114.675C150.455 113.08 149.862 111.476 149.259 109.868L147.387 110.57ZM150.893 120.167C151.47 121.788 152.037 123.396 152.59 124.987L154.479 124.33C153.924 122.734 153.356 121.121 152.777 119.496L150.893 120.167ZM154.254 129.82C154.812 131.461 155.356 133.077 155.885 134.665L157.782 134.033C157.252 132.441 156.707 130.821 156.147 129.176L154.254 129.82ZM157.483 139.517C158.024 141.178 158.546 142.798 159.049 144.371L160.954 143.763C160.451 142.186 159.927 140.562 159.385 138.898L157.483 139.517ZM160.587 149.246C161.121 150.954 161.626 152.589 162.101 154.143L164.013 153.558C163.537 152.001 163.031 150.361 162.496 148.649L160.587 149.246ZM163.574 159.018C164.112 160.818 164.594 162.453 165.016 163.901L166.936 163.341C166.513 161.889 166.03 160.25 165.49 158.445L163.574 159.018Z" fill="white"/>
</svg>
