<svg width="115.000000" height="298.000000" viewBox="0 0 115 298" fill="none" xmlns="http://www.w3.org/2000/svg" xmlns:xlink="http://www.w3.org/1999/xlink">
	<desc>
			Created with Pixso.
	</desc>
	<defs/>
	<path id="Vector 2" d="M98.25 26.52Q96.92 24.2 95.49 22.12L93.84 23.25Q95.22 25.26 96.52 27.52L98.25 26.52ZM92.34 17.95Q90.63 15.91 88.81 14.19L87.44 15.64Q89.17 17.28 90.81 19.24L92.34 17.95ZM102.81 35.83Q101.78 33.36 100.66 31.08L98.86 31.96Q99.95 34.19 100.96 36.6L102.81 35.83ZM106.34 45.53Q105.54 43 104.67 40.6L102.79 41.28Q103.64 43.64 104.43 46.13L106.34 45.53ZM82.55 9.4Q81.39 8.7 80.24 8.05L79.26 9.8Q80.39 10.43 81.53 11.11Q82.56 11.73 83.57 12.45L84.73 10.82Q83.66 10.06 82.55 9.4ZM109.06 55.45Q108.45 52.89 107.78 50.43L105.85 50.96Q106.51 53.39 107.11 55.92L109.06 55.45ZM75.64 5.65Q73.2 4.47 70.8 3.51L70.06 5.37Q72.39 6.3 74.77 7.45L75.64 5.65ZM111.1 65.44Q110.66 62.89 110.15 60.42L108.19 60.82Q108.69 63.26 109.13 65.78L111.1 65.44ZM112.61 75.68Q112.3 73.08 111.92 70.53L109.94 70.82Q110.31 73.34 110.63 75.92L112.61 75.68ZM65.83 1.75Q63.25 0.96 60.73 0.45L60.33 2.41Q62.75 2.9 65.24 3.67L65.83 1.75ZM113.61 85.97Q113.42 83.38 113.17 80.83L111.18 81.02Q111.43 83.55 111.61 86.12L113.61 85.97ZM114.12 96.23Q114.05 93.66 113.92 91.11L111.93 91.21Q112.05 93.74 112.12 96.28L114.12 96.23ZM55.52 -0.34Q52.83 -0.59 50.23 -0.51L50.29 1.49Q52.77 1.41 55.33 1.65L55.52 -0.34ZM114.17 106.62Q114.22 104 114.2 101.36L112.2 101.37Q112.22 103.99 112.17 106.59L114.17 106.62ZM40.77 0.92Q40.26 1.07 39.76 1.22L40.36 3.13Q40.79 3 41.24 2.87Q43.21 2.3 45.26 1.97L44.93 -0.01Q42.82 0.34 40.77 0.92ZM113.72 116.87Q113.89 114.37 114 111.8L112.01 111.72Q111.9 114.25 111.73 116.74L113.72 116.87ZM112.75 127.03Q113.07 124.49 113.32 121.85L111.33 121.66Q111.08 124.27 110.77 126.78L112.75 127.03ZM34.82 3.16Q32.45 4.28 30.19 5.74L31.28 7.42Q33.43 6.03 35.67 4.97L34.82 3.16ZM111.13 137.2Q111.62 134.72 112.04 132.08L110.06 131.76Q109.65 134.36 109.17 136.81L111.13 137.2ZM25.93 8.88Q23.94 10.53 22.04 12.47L23.47 13.87Q25.29 12 27.21 10.42L25.93 8.88ZM108.64 147.16Q109.37 144.82 110.01 142.24L108.07 141.75Q107.44 144.29 106.73 146.57L108.64 147.16ZM105.9 154.42Q106.41 153.33 106.89 152.14L105.03 151.39Q104.57 152.53 104.09 153.58L103.09 155.71L104.9 156.55L105.9 154.42ZM18.52 16.43Q16.92 18.4 15.4 20.59L17.04 21.73Q18.52 19.6 20.07 17.69L18.52 16.43ZM100.48 165.64L102.69 161.16L100.89 160.28L98.68 164.75L100.48 165.64ZM12.56 25.01Q11.23 27.23 9.98 29.64L11.75 30.56Q12.98 28.2 14.28 26.03L12.56 25.01ZM95.89 174.67L98.18 170.2L96.4 169.29L94.11 173.76L95.89 174.67ZM7.71 34.27Q6.64 36.61 5.62 39.1L7.47 39.85Q8.47 37.4 9.53 35.1L7.71 34.27ZM91.21 183.66L93.57 179.15L91.8 178.22L89.44 182.73L91.21 183.66ZM3.76 43.94Q2.89 46.35 2.07 48.89L3.97 49.5Q4.78 47 5.64 44.63L3.76 43.94ZM86.48 192.59L88.88 188.08L87.11 187.14L84.72 191.65L86.48 192.59ZM0.54 53.87Q0.17 55.14 -0.19 56.45L1.74 56.98Q2.09 55.69 2.46 54.42L0.54 53.87ZM81.78 201.34L84.14 196.96L82.38 196.01L80.02 200.39L81.78 201.34ZM76.96 210.24L79.38 205.77L77.63 204.82L75.2 209.28L76.96 210.24ZM72.26 218.82L74.5 214.73L72.75 213.77L70.51 217.86L70.3 218.24L72.05 219.2L72.26 218.82ZM67.15 228.1L69.6 223.66L67.85 222.69L65.4 227.13L67.15 228.1ZM62.28 236.87L64.71 232.51L62.96 231.53L60.53 235.9L62.28 236.87ZM57.37 245.67L59.85 241.23L58.11 240.26L55.63 244.7L57.37 245.67ZM52.44 254.47L54.93 250.03L53.19 249.05L50.69 253.49L52.44 254.47ZM47.51 263.23L49.97 258.86L48.23 257.88L45.76 262.25L47.51 263.23ZM42.55 271.99L45 267.68L43.25 266.69L40.81 271L42.55 271.99ZM37.55 280.8L40.01 276.47L38.27 275.48L35.81 279.81L37.55 280.8ZM32.8 289.12L35.05 285.18L33.31 284.19L31.07 288.12L26.98 285.76L27 297.23L36.92 291.49L32.8 289.12Z" fill="#FFFFFF" fill-opacity="1.000000" fill-rule="evenodd"/>
</svg>
