<svg width="54" height="54" viewBox="0 0 54 54" fill="none" xmlns="http://www.w3.org/2000/svg">
<path d="M12.3097 24.1877C10.5846 23.9341 8.84754 23.7693 7.10549 23.6938C6.34161 23.6465 5.33474 24.0448 5.16036 25.9708C5.12782 26.4551 5.17456 26.9415 5.29874 27.4108C5.41444 27.9008 5.67531 28.3446 6.04723 28.684C6.41915 29.0234 6.88482 29.2427 7.38336 29.3132L14.8297 30.3617C14.8669 30.3678 14.9045 30.3708 14.9422 30.3707C15.0877 30.3708 15.2307 30.3333 15.3574 30.2619C15.4841 30.1905 15.5902 30.0875 15.6653 29.963C15.7405 29.8384 15.7822 29.6966 15.7864 29.5512C15.7906 29.4058 15.7571 29.2618 15.6892 29.1332C13.2401 24.4745 12.6124 24.281 12.3097 24.1877ZM7.61849 27.6425C7.45491 27.6175 7.3026 27.544 7.18126 27.4315C7.05992 27.319 6.97513 27.1726 6.93786 27.0114C6.85937 26.7224 6.82672 26.4229 6.84111 26.1238C6.84378 25.8677 6.90172 25.6152 7.01099 25.3835H7.03461C8.95836 25.5039 11.1217 25.6783 11.7079 25.7818C12.3413 26.6294 12.9077 27.5249 13.4021 28.4604L7.61849 27.6425Z" fill="white"/>
<path d="M46.8933 23.6938C45.1513 23.7693 43.4143 23.9341 41.6891 24.1876C41.3865 24.281 40.7576 24.4745 38.3051 29.1376C38.2372 29.2663 38.2037 29.4103 38.2079 29.5557C38.2121 29.7011 38.2538 29.8429 38.329 29.9674C38.4041 30.0919 38.5102 30.1949 38.6369 30.2664C38.7636 30.3378 38.9066 30.3753 39.0521 30.3751C39.0898 30.3753 39.1274 30.3723 39.1646 30.3661L46.611 29.3176C47.1095 29.2471 47.5752 29.0278 47.9471 28.6884C48.319 28.349 48.5799 27.9053 48.6956 27.4153C48.8194 26.9459 48.8661 26.4596 48.834 25.9753C48.663 24.0448 47.6505 23.6476 46.8933 23.6938ZM47.061 27.0114C47.0237 27.1726 46.9389 27.319 46.8176 27.4315C46.6962 27.544 46.5439 27.6175 46.3803 27.6425L40.5967 28.457C41.0914 27.522 41.6575 26.6264 42.2898 25.7784C42.8861 25.6738 45.0517 25.4994 46.9743 25.3801C47.097 25.6087 47.1601 25.8644 47.1577 26.1238C47.1722 26.4229 47.1395 26.7224 47.061 27.0114Z" fill="white"/>
<path d="M38.6797 24.9729C38.5947 24.8515 38.4793 24.7546 38.3451 24.6918C38.2108 24.629 38.0624 24.6026 37.9147 24.6152C37.8371 24.6219 30.087 25.2902 27.0022 25.2902C23.9175 25.2902 16.1662 24.6152 16.0897 24.6152C15.942 24.6022 15.7935 24.6284 15.6591 24.6912C15.5247 24.7539 15.4093 24.8511 15.3245 24.9727C15.2397 25.0944 15.1885 25.2363 15.1761 25.3841C15.1637 25.5319 15.1905 25.6803 15.2539 25.8144L17.4757 30.5293C17.5407 30.6663 17.6413 30.7834 17.7669 30.8683C17.8926 30.9532 18.0388 31.0028 18.1901 31.0119L26.9977 31.5159L35.8189 31.0119C35.9703 31.003 36.1166 30.9535 36.2423 30.8686C36.368 30.7837 36.4685 30.6665 36.5332 30.5293L38.7551 25.8144C38.818 25.68 38.8441 25.5313 38.8309 25.3835C38.8176 25.2357 38.7655 25.0941 38.6797 24.9729ZM35.217 29.3604L27 29.8352L18.7875 29.3604L17.4026 26.4219C19.8315 26.6199 24.6465 26.9844 27.0034 26.9844C29.3602 26.9844 34.1764 26.6199 36.6064 26.4219L35.217 29.3604Z" fill="white"/>
<path d="M51.5374 41.39C51.3136 41.39 51.099 41.4789 50.9407 41.6372C50.7825 41.7954 50.6936 42.01 50.6936 42.2338V45.737C50.6936 45.8161 50.6622 45.8919 50.6063 45.9478C50.5504 46.0037 50.4746 46.0352 50.3955 46.0352H46.0125C45.9334 46.0352 45.8576 46.0037 45.8017 45.9478C45.7458 45.8919 45.7144 45.8161 45.7144 45.737V44.2925C45.7144 44.0688 45.6255 43.8541 45.4672 43.6959C45.309 43.5377 45.0944 43.4488 44.8706 43.4488C44.6468 43.4488 44.4322 43.5377 44.274 43.6959C44.1158 43.8541 44.0269 44.0688 44.0269 44.2925V45.737C44.0275 46.2635 44.2368 46.7682 44.6091 47.1404C44.9813 47.5127 45.486 47.7221 46.0125 47.7227H50.4C50.9264 47.7221 51.4311 47.5127 51.8034 47.1404C52.1756 46.7682 52.385 46.2635 52.3856 45.737V42.2338C52.3856 42.1226 52.3636 42.0125 52.321 41.9098C52.2783 41.8072 52.2157 41.714 52.1369 41.6356C52.0581 41.5572 51.9645 41.4951 51.8616 41.453C51.7587 41.4108 51.6485 41.3894 51.5374 41.39Z" fill="white"/>
<path d="M9.06976 43.4476C8.84598 43.4476 8.63137 43.5365 8.47314 43.6948C8.3149 43.853 8.22601 44.0676 8.22601 44.2914V45.7359C8.22601 45.8148 8.19475 45.8904 8.13909 45.9463C8.08342 46.0022 8.00788 46.0337 7.92901 46.034H3.54151C3.46263 46.0337 3.38709 46.0022 3.33143 45.9463C3.27576 45.8904 3.24451 45.8148 3.24451 45.7359V42.2338C3.24451 42.01 3.15561 41.7954 2.99738 41.6371C2.83914 41.4789 2.62453 41.39 2.40076 41.39C2.17698 41.39 1.96237 41.4789 1.80414 41.6371C1.6459 41.7954 1.55701 42.01 1.55701 42.2338V45.737C1.5573 46.263 1.76613 46.7673 2.13772 47.1395C2.5093 47.5118 3.01331 47.7215 3.53926 47.7226H7.92676C8.45309 47.722 8.95768 47.5126 9.32975 47.1403C9.70182 46.7681 9.91096 46.2634 9.91126 45.737V44.2925C9.91156 44.0689 9.8231 43.8544 9.66532 43.696C9.50754 43.5376 9.29334 43.4482 9.06976 43.4476Z" fill="white"/>
<path d="M52.2326 14.9345L49.4201 14.4485C49.0092 14.3727 48.5847 14.4391 48.2166 14.6369C47.8485 14.8346 47.5588 15.1519 47.3951 15.5364L47.2433 15.8739L45.2498 11.1714C44.7991 10.0932 44.0799 9.14826 43.1607 8.42671C42.2414 7.70516 41.1527 7.231 39.9983 7.04939C35.6967 6.39636 31.3509 6.07816 27 6.09765C22.6491 6.07853 18.3033 6.39711 14.0018 7.05052C12.8475 7.23202 11.7588 7.70601 10.8396 8.42735C9.92034 9.14869 9.20106 10.0934 8.75027 11.1714L6.75002 15.8784L6.60827 15.5476C6.4459 15.1615 6.1569 14.8422 5.78884 14.6422C5.42077 14.4422 4.99558 14.3735 4.58327 14.4474L1.77077 14.9345C1.31435 15.0102 0.899617 15.2455 0.600464 15.5984C0.301311 15.9513 0.137165 16.399 0.137268 16.8616V17.414C0.137689 17.8594 0.289618 18.2913 0.568082 18.6389C0.846545 18.9865 1.23497 19.229 1.66952 19.3265L4.34027 19.9295L3.15677 21.7351C2.13129 23.2953 1.58566 25.1219 1.58739 26.9889V36.5851C1.58739 40.2065 4.10964 42.5476 8.01564 42.5476H45.9844C49.8904 42.5476 52.4126 40.2076 52.4126 36.5851V26.9844C52.4144 25.1174 51.8687 23.2908 50.8433 21.7306L49.6598 19.9306L52.3215 19.3299C52.7573 19.2335 53.1473 18.9916 53.4273 18.644C53.7072 18.2963 53.8604 17.8637 53.8616 17.4174V16.865C53.8629 16.4024 53.6999 15.9543 53.4015 15.6007C53.1032 15.2472 52.6889 15.011 52.2326 14.9345ZM2.03289 17.675C1.97367 17.6617 1.92077 17.6286 1.88293 17.5811C1.84509 17.5337 1.82457 17.4747 1.82477 17.414V16.8616C1.82385 16.7979 1.84619 16.736 1.88761 16.6876C1.92902 16.6391 1.98667 16.6074 2.04977 16.5984L4.87464 16.1101C4.91427 16.103 4.95514 16.1105 4.98968 16.1312C5.02422 16.1518 5.0501 16.1843 5.06252 16.2226L5.75214 17.7819L5.33139 18.4231L2.03289 17.675ZM50.7251 33.9639H5.41352C5.18974 33.9639 4.97513 34.0528 4.8169 34.211C4.65866 34.3693 4.56977 34.5839 4.56977 34.8076C4.56977 35.0314 4.65866 35.246 4.8169 35.4043C4.97513 35.5625 5.18974 35.6514 5.41352 35.6514H50.7251V36.5851C50.7251 39.2604 48.9533 40.8601 45.9844 40.8601H8.01564C5.04677 40.8601 3.27489 39.2615 3.27489 36.5851V26.9844C3.27371 25.4461 3.72308 23.9412 4.56752 22.6554L7.22702 18.5986H44.0381C44.2619 18.5986 44.4765 18.5098 44.6348 18.3515C44.793 18.1933 44.8819 17.9787 44.8819 17.7549C44.8819 17.5311 44.793 17.3165 44.6348 17.1583C44.4765 17 44.2619 16.9111 44.0381 16.9111H8.14839L10.3039 11.8351C10.6431 11.0207 11.1855 10.3069 11.8791 9.76171C12.5728 9.21655 13.3946 8.8583 14.2661 8.72115C18.4801 8.07926 22.7375 7.76632 27 7.78515C31.2624 7.7652 35.5199 8.07702 39.7339 8.71777C40.6058 8.85524 41.4278 9.21401 42.1215 9.75978C42.8152 10.3056 43.3574 11.0201 43.6961 11.8351L46.1621 17.648C46.1813 17.6945 46.205 17.739 46.233 17.7808L49.4325 22.6599C50.2769 23.9457 50.7263 25.4506 50.7251 26.9889V33.9639ZM52.1741 17.414C52.1741 17.4759 52.1527 17.5359 52.1136 17.5839C52.0744 17.6319 52.0199 17.6648 51.9593 17.6773L48.672 18.4198L48.2513 17.7785L48.9454 16.2035C48.961 16.1694 48.9874 16.1414 49.0206 16.1239C49.0538 16.1064 49.0918 16.1004 49.1288 16.1068L51.948 16.595C52.0111 16.604 52.0688 16.6357 52.1102 16.6842C52.1516 16.7327 52.1739 16.7945 52.173 16.8583L52.1741 17.414Z" fill="white"/>
</svg>
