<svg width="54" height="54" viewBox="0 0 54 54" fill="none" xmlns="http://www.w3.org/2000/svg">
<g clip-path="url(#clip0_10_2276)">
<path d="M38.7934 4.66448H43.1208C44.506 4.66448 45.6331 3.53744 45.6331 2.15221C45.6331 1.02749 44.7179 0.112338 43.5932 0.112338H40.1928C39.6588 0.112338 39.1628 0.352807 38.8318 0.772151L37.5793 2.35977C37.2385 2.79146 37.1759 3.3671 37.4158 3.86207C37.4143 3.85912 37.4132 3.85606 37.4118 3.8531L36.1206 5.48966L32.8917 4.87784C32.302 2.16698 29.885 0.130057 27 0.130057C24.115 0.130057 21.698 2.16698 21.1083 4.87794L17.8794 5.48977L16.51 3.75417C16.5109 3.75228 16.512 3.75038 16.5129 3.74848C16.7443 3.2571 16.6789 2.68694 16.3425 2.26063L15.0794 0.659721C14.7393 0.22867 14.2091 -0.016439 13.6594 0.000857868L10.3916 0.112444C9.27387 0.12067 8.36694 1.03255 8.36694 2.15221C8.36694 3.53744 9.49398 4.66448 10.8792 4.66448C10.8852 4.66448 10.8912 4.66437 10.8972 4.66426L15.1302 4.56776L16.1445 5.85332C16.1453 5.85311 16.146 5.8529 16.1467 5.85258C15.4756 6.1017 14.9592 6.64191 14.7319 7.30805L11.4801 7.30794C11.0417 7.30794 10.6865 7.66316 10.6865 8.10149C10.6865 8.53982 11.0418 8.89504 11.4801 8.89504H14.7527C15.0883 9.79405 15.9554 10.436 16.97 10.436H21.8212C17.8532 11.2479 14.8591 14.7661 14.8591 18.9705V21.7522V26.5666V30.0109C14.8591 30.4493 15.2144 30.8045 15.6526 30.8045C16.0909 30.8045 16.4462 30.4493 16.4462 30.0109V27.3602H18.9825C19.8902 27.3602 20.6288 26.6216 20.6288 25.7138V22.605C20.6288 21.6973 19.8902 20.9587 18.9825 20.9587H16.4462V18.9707C16.4462 15.3371 19.1814 12.3323 22.7007 11.9018L23.6182 21.5957C23.7178 22.6476 24.5896 23.4408 25.6462 23.4408H28.3532C29.4097 23.4408 30.2816 22.6476 30.3811 21.5957L31.2987 11.9018C34.818 12.3323 37.5532 15.3371 37.5532 18.9707V20.9589H35.0169C34.1091 20.9589 33.3705 21.6975 33.3705 22.6052V25.714C33.3705 26.6218 34.1091 27.3604 35.0169 27.3604H37.5532V35.4268C37.5532 36.8405 36.5993 38.0826 35.2336 38.4476L33.8853 38.8079L34.6819 36.1716C35.0462 34.9662 35.0511 33.7092 34.6959 32.5364C34.2064 30.9194 33.19 29.4664 31.8342 28.4448C30.4318 27.388 28.7601 26.8296 26.9997 26.8296C25.2393 26.8296 23.5676 27.388 22.1652 28.4448C20.8094 29.4665 19.793 30.9195 19.3034 32.5364C18.9483 33.7092 18.9532 34.9662 19.3174 36.1717L20.114 38.8079L18.7657 38.4476C17.3999 38.0827 16.4461 36.8405 16.4461 35.4268V33.7091C16.4461 33.2708 16.0907 32.9155 15.6525 32.9155C15.2142 32.9155 14.859 33.2708 14.859 33.7091V35.4268C14.859 37.558 16.2969 39.4307 18.356 39.981L20.4733 40.5467V46.445C20.4733 47.391 21.243 48.1607 22.1891 48.1607H23.0842V50.0844C23.0845 52.2435 24.8409 54 27 54C29.159 54 30.9155 52.2435 30.9155 50.0844V48.1607H31.8105C32.7567 48.1607 33.5264 47.391 33.5264 46.445V40.5467L35.6437 39.981C37.7027 39.4307 39.1407 37.558 39.1407 35.4268V26.5669V21.7524V18.9707C39.1407 14.7663 36.1466 11.2482 32.1786 10.4363H37.0298C38.0444 10.4363 38.9115 9.79426 39.2471 8.89525H42.5197C42.9581 8.89525 43.3133 8.54003 43.3133 8.1017C43.3133 7.66337 42.9579 7.30816 42.5197 7.30816H39.268C39.0408 6.64244 38.5249 6.10254 37.8544 5.85321C37.8547 5.85332 37.8551 5.85342 37.8554 5.85353L38.7934 4.66448ZM40.0779 1.75533C40.1059 1.71989 40.1477 1.69954 40.1928 1.69954H43.5932C43.8428 1.69954 44.0459 1.90256 44.0459 2.15221C44.0459 2.66236 43.6308 3.07738 43.1207 3.07738H39.0347L40.0779 1.75533ZM10.8716 3.07738C10.3649 3.07327 9.95414 2.65983 9.95414 2.15221C9.95414 1.90256 10.1573 1.69954 10.4068 1.69954C10.4159 1.69954 10.4248 1.69943 10.4339 1.69912L13.7134 1.58721C13.715 1.58711 13.7166 1.58711 13.7183 1.58711C13.763 1.58711 13.8058 1.60767 13.8335 1.6428L14.893 2.98573L10.8716 3.07738ZM16.9702 8.84905C16.5408 8.84905 16.1914 8.49964 16.1914 8.07017C16.1914 7.69628 16.458 7.37439 16.8252 7.30489L20.9812 6.51746C21.0302 7.35119 21.2495 8.13957 21.6045 8.84905H16.9702ZM16.4464 22.5459H18.9827C19.0154 22.5459 19.0419 22.5725 19.0419 22.6051V25.7139C19.0419 25.7466 19.0153 25.7731 18.9827 25.7731H16.4464V22.5459ZM23.0845 46.5736H22.1895C22.1185 46.5736 22.0608 46.5159 22.0608 46.445V45.3737C22.0608 45.3027 22.1185 45.2449 22.1895 45.2449H23.0845V46.5736ZM23.0846 43.6577H23.0845H22.1895C22.146 43.6577 22.1034 43.6611 22.0608 43.6643V41.6134C22.3779 41.8116 22.7206 41.9708 23.0846 42.0801V43.6577ZM29.3284 50.0844C29.3283 51.3683 28.2838 52.4128 27 52.4128C25.7162 52.4128 24.6717 51.3683 24.6717 50.0844V42.2627H29.3284V50.0844ZM31.9393 46.445C31.9393 46.5159 31.8816 46.5736 31.8106 46.5736H30.9156V45.2451H31.8106C31.8816 45.2451 31.9393 45.3028 31.9393 45.3738V46.445ZM31.9394 43.6643C31.8967 43.6611 31.8541 43.6577 31.8106 43.6577H30.9156V42.0801C31.2795 41.9707 31.6223 41.8116 31.9394 41.6134V43.6643ZM33.163 35.7126L32.2395 38.7688C32.1985 38.9047 32.1473 39.0349 32.0874 39.1593C32.0469 39.2159 32.014 39.2779 31.9894 39.3443C31.9546 39.4043 31.9176 39.4627 31.8787 39.5195C31.8675 39.5343 31.857 39.5496 31.847 39.5652C31.4268 40.1505 30.7847 40.5438 30.0551 40.647C30.0395 40.6483 30.0242 40.6504 30.0088 40.6526C29.8979 40.6663 29.7856 40.6755 29.6713 40.6755H24.3288C24.2145 40.6755 24.1022 40.6663 23.9913 40.6526C23.976 40.6504 23.9606 40.6483 23.945 40.647C23.2153 40.5438 22.5731 40.1504 22.1529 39.5649C22.1428 39.5495 22.1326 39.5343 22.1215 39.5197C22.0825 39.4628 22.0455 39.4042 22.0106 39.344C21.986 39.2777 21.9532 39.2158 21.9128 39.1593C21.8529 39.0348 21.8018 38.9045 21.7606 38.7686L20.8371 35.7125C20.5638 34.8077 20.5588 33.8685 20.8229 32.9963C21.6394 30.2998 24.1797 28.4166 27.0001 28.4166C29.8206 28.4166 32.3608 30.2998 33.1773 32.9963C33.4413 33.8686 33.4363 34.8078 33.163 35.7126ZM37.5536 25.7732H35.0173C34.9846 25.7732 34.9581 25.7466 34.9581 25.714V22.6052C34.9581 22.5725 34.9847 22.5461 35.0173 22.5461H37.5536V25.7732ZM28.8013 21.446C28.7794 21.6783 28.5868 21.8536 28.3535 21.8536H27.7935H26.2063H25.6464C25.4131 21.8536 25.2205 21.6783 25.1986 21.446L24.29 11.8469H24.9921C25.033 11.8613 25.0744 11.874 25.1155 11.8876C25.1528 11.8999 25.1898 11.913 25.2275 11.9245C25.3123 11.9507 25.3974 11.975 25.483 11.9973C25.5142 12.0054 25.5457 12.0121 25.577 12.0197C25.6366 12.0341 25.6962 12.0484 25.7561 12.0611C25.7926 12.0688 25.8295 12.0753 25.8662 12.0824C25.9224 12.0932 25.9786 12.1035 26.0352 12.1127C26.0723 12.1187 26.1096 12.1241 26.147 12.1293C26.1668 12.1322 26.1865 12.1356 26.2063 12.1382V15.3387C26.2063 15.777 26.5617 16.1322 26.9999 16.1322C27.4382 16.1322 27.7934 15.777 27.7934 15.3387V12.1382C27.8133 12.1356 27.833 12.1322 27.8528 12.1293C27.8902 12.1241 27.9275 12.1187 27.9646 12.1127C28.0211 12.1036 28.0774 12.0932 28.1336 12.0824C28.1703 12.0753 28.2072 12.0688 28.2437 12.0611C28.3036 12.0484 28.3632 12.0341 28.4228 12.0197C28.454 12.0121 28.4856 12.0054 28.5167 11.9973C28.6024 11.975 28.6876 11.9507 28.7723 11.9245C28.8099 11.9129 28.847 11.8999 28.8843 11.8876C28.9254 11.874 28.9668 11.8613 29.0077 11.8469H29.7098L28.8013 21.446ZM28.5549 10.3221C28.5233 10.3339 28.4914 10.345 28.4596 10.3561C28.4261 10.3678 28.3926 10.3794 28.3588 10.3903C28.325 10.4011 28.291 10.4113 28.2571 10.4213C28.2236 10.4312 28.1901 10.4408 28.1564 10.45C28.1227 10.459 28.089 10.4676 28.0552 10.4759C28.0198 10.4846 27.9842 10.4928 27.9485 10.5006C27.9159 10.5078 27.8833 10.5146 27.8506 10.5209C27.8125 10.5284 27.7741 10.5351 27.7356 10.5415C27.7046 10.5467 27.6737 10.552 27.6426 10.5565C27.6011 10.5625 27.5592 10.5676 27.5173 10.5725C27.4886 10.5759 27.4601 10.5796 27.4313 10.5823C27.3841 10.5869 27.3366 10.5901 27.2889 10.5932C27.2648 10.5948 27.2409 10.597 27.2167 10.5981C27.1449 10.6016 27.0728 10.6036 27.0001 10.6036C26.9274 10.6036 26.8553 10.6016 26.7835 10.5981C26.7593 10.597 26.7354 10.5948 26.7113 10.5932C26.6638 10.5901 26.6162 10.5869 26.5689 10.5823C26.5402 10.5796 26.5116 10.5759 26.4829 10.5725C26.441 10.5677 26.3991 10.5626 26.3576 10.5565C26.3265 10.552 26.2956 10.5468 26.2646 10.5415C26.2261 10.5351 26.1878 10.5283 26.1496 10.5209C26.1169 10.5145 26.0843 10.5078 26.0517 10.5006C26.016 10.4928 25.9804 10.4846 25.945 10.4759C25.9111 10.4676 25.8774 10.459 25.8439 10.45C25.8101 10.4409 25.7766 10.4312 25.7431 10.4213C25.7092 10.4113 25.6752 10.401 25.6415 10.3903C25.6076 10.3794 25.5742 10.3677 25.5406 10.3561C25.5088 10.345 25.4769 10.3339 25.4453 10.3221C23.7601 9.69038 22.5571 8.06352 22.5571 6.16044C22.5571 5.98779 22.5681 5.81778 22.5873 5.65029C22.5876 5.64776 22.588 5.64523 22.5882 5.64259C22.8457 3.43587 24.7256 1.71715 27.0002 1.71715C29.2749 1.71715 31.1547 3.43576 31.4122 5.64259C31.4125 5.64512 31.4128 5.64766 31.4131 5.65029C31.4324 5.81778 31.4433 5.9879 31.4433 6.16044C31.4432 8.06352 30.2402 9.69038 28.5549 10.3221ZM37.0298 8.84905H32.3955C32.7505 8.13957 32.9698 7.35129 33.0188 6.51746L37.1748 7.30489C37.5421 7.37439 37.8088 7.69628 37.8088 8.07017C37.8088 8.49953 37.4593 8.84905 37.0298 8.84905Z" fill="white"/>
<path d="M27 2.79462C25.1442 2.79462 23.6343 4.30451 23.6343 6.16044C23.6343 8.01627 25.1442 9.52616 27 9.52616C28.8558 9.52616 30.3657 8.01627 30.3657 6.16044C30.3657 4.30451 28.8558 2.79462 27 2.79462ZM27 7.93896C26.0192 7.93896 25.2214 7.14109 25.2214 6.16044C25.2214 5.17979 26.0192 4.38182 27 4.38182C27.9808 4.38182 28.7786 5.17969 28.7786 6.16044C28.7786 7.14119 27.9808 7.93896 27 7.93896Z" fill="white"/>
</g>
<defs>
<clipPath id="clip0_10_2276">
<rect width="54" height="54" fill="white"/>
</clipPath>
</defs>
</svg>
