<svg width="54" height="54" viewBox="0 0 54 54" fill="none" xmlns="http://www.w3.org/2000/svg">
<g clip-path="url(#clip0_10_2247)">
<path d="M52.92 19.44H48.6V2.16C48.599 0.967676 47.6323 0.00105469 46.44 0H7.56C6.36768 0.00105469 5.40106 0.967676 5.4 2.16V19.44H1.08C0.483574 19.44 0 19.9236 0 20.52V29.16C0 29.7564 0.483574 30.24 1.08 30.24H5.4V39.96C5.4 40.25 5.5176 40.528 5.7259 40.7299C5.51391 41.1629 5.40264 41.638 5.4 42.12V44.28C5.40211 46.0688 6.85125 47.5179 8.64 47.52V50.76C8.64211 52.5488 10.0913 53.9979 11.88 54H16.2C17.9888 53.9979 19.4379 52.5488 19.44 50.76V47.52H34.56V50.76C34.5621 52.5488 36.0113 53.9979 37.8 54H42.12C43.9088 53.9979 45.3579 52.5488 45.36 50.76V47.52C47.1488 47.5179 48.5979 46.0688 48.6 44.28V42.12C48.5974 41.638 48.4861 41.1629 48.2746 40.7299C48.4824 40.528 48.6 40.25 48.6 39.96V30.24H52.92C53.5164 30.24 54 29.7564 54 29.16V20.52C54 19.9236 53.5164 19.44 52.92 19.44ZM45.36 38.88V31.898L46.44 31.1781V38.88H45.36ZM15.12 38.88V35.64C15.12 35.3537 15.0061 35.0789 14.8036 34.8764L12.6436 32.7164C12.4411 32.5139 12.1663 32.4 11.88 32.4H10.8V14.04C10.8021 12.2513 12.2513 10.8021 14.04 10.8H39.96C41.7488 10.8021 43.1979 12.2513 43.2 14.04V32.4H42.12C41.8337 32.4 41.5589 32.5139 41.3564 32.7164L39.1964 34.8764C38.9939 35.0789 38.88 35.3537 38.88 35.64V38.88H15.12ZM7.56 38.88V31.1781L8.64 31.898V38.88H7.56ZM10.8 34.56H11.4328L12.96 36.0872V38.88H10.8V34.56ZM41.04 36.0872L42.5672 34.56H43.2V38.88H41.04V36.0872ZM7.56 2.16H46.44V28.582L45.36 29.3019V14.04C45.3563 11.0589 42.9411 8.64369 39.96 8.64H14.04C11.0589 8.64369 8.64369 11.0589 8.64 14.04V29.3019L7.56 28.582V2.16ZM2.16 28.08V21.6H5.4V28.08H2.16ZM17.28 50.76C17.2795 51.3559 16.7959 51.8395 16.2 51.84H11.88C11.2841 51.8395 10.8005 51.3559 10.8 50.76V47.52H17.28V50.76ZM43.2 50.76C43.1995 51.3559 42.7159 51.8395 42.12 51.84H37.8C37.2041 51.8395 36.7205 51.3559 36.72 50.76V47.52H43.2V50.76ZM46.44 44.28C46.4395 44.8759 45.9559 45.3595 45.36 45.36H8.64C8.0441 45.3595 7.56053 44.8759 7.56 44.28V42.12C7.56053 41.5241 8.0441 41.0405 8.64 41.04H45.36C45.9559 41.0405 46.4395 41.5241 46.44 42.12V44.28ZM51.84 28.08H48.6V21.6H51.84V28.08Z" fill="white"/>
<path d="M17.9745 30.24H36.0255C36.1726 30.24 36.3176 30.21 36.4526 30.152L41.4671 27.992C41.8632 27.8211 42.12 27.4314 42.12 27V15.12C42.1395 13.9488 41.2082 12.9827 40.037 12.96H13.963C12.7918 12.9827 11.8605 13.9488 11.88 15.12V27C11.88 27.4314 12.1368 27.8211 12.5329 27.992L17.5474 30.152C17.6824 30.21 17.8274 30.24 17.9745 30.24ZM13.963 15.12H39.96V26.2892L35.8029 28.08H32.4865L33.1035 27H36.18C36.7764 27 37.26 26.5164 37.26 25.92C37.26 25.3236 36.7764 24.84 36.18 24.84H29.7C29.1036 24.84 28.62 25.3236 28.62 25.92C28.62 26.5164 29.1036 27 29.7 27H30.616L29.999 28.08H21.6865L22.3035 27H25.38C25.9764 27 26.46 26.5164 26.46 25.92C26.46 25.3236 25.9764 24.84 25.38 24.84H18.9C18.3036 24.84 17.82 25.3236 17.82 25.92C17.82 26.5164 18.3036 27 18.9 27H19.816L19.199 28.08H18.1971L14.0353 26.2871L13.963 15.12Z" fill="white"/>
<path d="M23.76 42.12H19.44C18.8436 42.12 18.36 42.6036 18.36 43.2C18.36 43.7964 18.8436 44.28 19.44 44.28H23.76C24.3564 44.28 24.84 43.7964 24.84 43.2C24.84 42.6036 24.3564 42.12 23.76 42.12Z" fill="white"/>
<path d="M34.56 42.12H30.24C29.6436 42.12 29.16 42.6036 29.16 43.2C29.16 43.7964 29.6436 44.28 30.24 44.28H34.56C35.1564 44.28 35.64 43.7964 35.64 43.2C35.64 42.6036 35.1564 42.12 34.56 42.12Z" fill="white"/>
<path d="M35.64 35.64H18.36C17.7636 35.64 17.28 36.1236 17.28 36.72C17.28 37.3164 17.7636 37.8 18.36 37.8H35.64C36.2364 37.8 36.72 37.3164 36.72 36.72C36.72 36.1236 36.2364 35.64 35.64 35.64Z" fill="white"/>
<path d="M35.64 32.4H18.36C17.7636 32.4 17.28 32.8836 17.28 33.48C17.28 34.0765 17.7636 34.56 18.36 34.56H35.64C36.2364 34.56 36.72 34.0765 36.72 33.48C36.72 32.8836 36.2364 32.4 35.64 32.4Z" fill="white"/>
</g>
<defs>
<clipPath id="clip0_10_2247">
<rect width="54" height="54" fill="white"/>
</clipPath>
</defs>
</svg>
