<svg width="54" height="52" viewBox="0 0 54 52" fill="none" xmlns="http://www.w3.org/2000/svg">
<g clip-path="url(#clip0_13_2645)">
<path d="M52.3598 10.1101H51.3624C51.3339 8.5322 50.0424 7.2571 48.4579 7.2571H46.044V3.48824C46.044 1.88603 44.7401 0.582092 43.1379 0.582092H10.862C9.2594 0.582092 7.95587 1.88603 7.95587 3.48824V7.2571H5.54204C3.95754 7.2571 2.66596 8.5322 2.63754 10.1101H1.64012C0.735808 10.1101 0 10.8459 0 11.7502V20.1992C0 21.1035 0.735808 21.8394 1.64012 21.8394H5.2174C6.12171 21.8394 6.85752 21.1035 6.85752 20.1992V11.7502C6.85752 10.8459 6.12171 10.1101 5.2174 10.1101H4.2241C4.25211 9.40643 4.83178 8.84201 5.54204 8.84201H7.95587V38.2459C7.95587 38.6838 8.31059 39.0386 8.74853 39.0386C9.18606 39.0386 9.54119 38.6838 9.54119 38.2459V31.7097C9.93753 31.9132 10.3866 32.0286 10.862 32.0286H43.1379C43.6133 32.0286 44.0624 31.9132 44.4587 31.7097V44.5056C44.4587 45.234 43.8663 45.8264 43.1379 45.8264H10.862C10.1336 45.8264 9.54119 45.234 9.54119 44.5056V41.9093C9.54119 41.4717 9.18606 41.1166 8.74853 41.1166C8.31059 41.1166 7.95587 41.4717 7.95587 41.9093V44.5056C7.95587 46.1078 9.2594 47.4114 10.862 47.4114H11.6864V49.2538C11.6864 50.4774 12.6818 51.4731 13.9058 51.4731H17.4686C18.6922 51.4731 19.6876 50.4774 19.6876 49.2538V47.4114H34.3123V49.2538C34.3123 50.4774 35.3077 51.4731 36.5313 51.4731H40.0941C41.3181 51.4731 42.3135 50.4774 42.3135 49.2538V47.4114H43.1379C44.7405 47.4114 46.044 46.1078 46.044 44.5056V8.84201H48.4579C49.1681 8.84201 49.7478 9.40643 49.7762 10.1101H48.7829C47.8786 10.1101 47.1424 10.8459 47.1424 11.7502V20.1992C47.1424 21.1035 47.8786 21.8394 48.7829 21.8394H52.3598C53.2641 21.8394 53.9999 21.1035 53.9999 20.1992V11.7502C53.9999 10.8459 53.2641 10.1101 52.3598 10.1101ZM5.2174 11.695C5.24788 11.695 5.27219 11.7197 5.27219 11.7502V20.1992C5.27219 20.2297 5.24747 20.2544 5.2174 20.2544H1.64012C1.60963 20.2544 1.58491 20.2297 1.58491 20.1992V11.7502C1.58491 11.7197 1.60963 11.695 1.64012 11.695H5.2174ZM18.1027 49.2538C18.1027 49.6031 17.818 49.8878 17.4686 49.8878H13.9058C13.556 49.8878 13.2717 49.6031 13.2717 49.2538V47.4114H18.1023V49.2538H18.1027ZM40.7282 49.2538C40.7282 49.6031 40.4439 49.8878 40.0941 49.8878H36.5313C36.1819 49.8878 35.8972 49.6031 35.8972 49.2538V47.4114H40.7282V49.2538ZM44.4587 10.0483H12.4519C12.0143 10.0483 11.6596 10.403 11.6596 10.841C11.6596 11.2785 12.0143 11.6336 12.4519 11.6336H44.4591V26.6472H39.2232C38.7852 26.6472 38.4305 27.002 38.4305 27.4399C38.4305 27.8778 38.7852 28.2326 39.2232 28.2326H44.4591V29.1229C44.4591 29.8508 43.8667 30.4437 43.1383 30.4437H10.862C10.1336 30.4437 9.54119 29.8508 9.54119 29.1229V28.2326H35.5244C35.9623 28.2326 36.317 27.8778 36.317 27.4399C36.317 27.002 35.9623 26.6472 35.5244 26.6472H27.7292L35.2067 20.3966C35.5417 20.1164 35.5862 19.6175 35.306 19.2822C35.0259 18.9472 34.5269 18.9023 34.192 19.1829L25.2626 26.6472H21.8592L29.3363 20.3966C29.6717 20.1164 29.7162 19.6175 29.436 19.2826C29.1559 18.9472 28.657 18.9023 28.3216 19.1829L19.3926 26.6477H9.54119V7.51212H44.4587V10.0483ZM44.4587 5.92679H9.54119V3.48824C9.54119 2.75985 10.1336 2.16742 10.862 2.16742H43.1379C43.8663 2.16742 44.4587 2.75985 44.4587 3.48824V5.92679ZM52.415 20.1992C52.415 20.2297 52.3903 20.2544 52.3598 20.2544H48.7829C48.7524 20.2544 48.7277 20.2297 48.7277 20.1992V11.7502C48.7277 11.7197 48.7524 11.695 48.7829 11.695H52.3598C52.3903 11.695 52.415 11.7197 52.415 11.7502V20.1992Z" fill="white"/>
<path d="M19.5764 40.3771C20.3048 40.3771 20.8972 39.7842 20.8972 39.0558V37.7877C20.8972 36.0689 19.4989 34.6707 17.7797 34.6707H12.9187C12.1903 34.6707 11.5978 35.2631 11.5978 35.9915V37.2596C11.5978 38.9784 12.9961 40.3771 14.7153 40.3771H19.5764ZM13.1828 37.2596V36.2556H17.7797C18.6247 36.2556 19.3119 36.9432 19.3119 37.7877V38.7918H14.7153C13.8704 38.7918 13.1828 38.1042 13.1828 37.2596Z" fill="white"/>
<path d="M39.2846 40.3771C41.0038 40.3771 42.4021 38.9784 42.4021 37.2596V35.9915C42.4021 35.2631 41.8096 34.6707 41.0813 34.6707H36.2202C34.5014 34.6707 33.1027 36.0689 33.1027 37.7877V39.0558C33.1027 39.7842 33.6952 40.3771 34.4236 40.3771H39.2846ZM34.6876 37.7877C34.6876 36.9428 35.3752 36.2556 36.2202 36.2556H40.8168V37.2596C40.8168 38.1046 40.1296 38.7918 39.2846 38.7918H34.6876V37.7877Z" fill="white"/>
<path d="M30.4985 44.6391C31.0584 44.6391 31.5137 44.1839 31.5137 43.624V41.5331C31.5137 40.9733 31.0584 40.518 30.4985 40.518H23.5013C22.9415 40.518 22.4862 40.9733 22.4862 41.5331V43.624C22.4862 44.1839 22.9415 44.6391 23.5013 44.6391H30.4985ZM24.0711 42.1029H29.9287V43.0542H24.0711V42.1029Z" fill="white"/>
</g>
<defs>
<clipPath id="clip0_13_2645">
<rect width="54" height="52" fill="white"/>
</clipPath>
</defs>
</svg>
