<svg width="181" height="50" viewBox="0 0 181 50" fill="none" xmlns="http://www.w3.org/2000/svg">
<path d="M80.3216 15.1924C80.2222 12.4782 78.1547 10.145 75.7136 8.94379C74.4336 8.31406 73.06 7.93893 71.6522 7.69019C72.9333 10.3117 73.887 13.1076 74.4714 15.9639C74.8759 15.9156 75.279 15.8657 75.6813 15.8159C75.1593 13.7029 74.441 11.6342 73.5343 9.65852C73.5343 9.65852 75.3561 12.3995 76.6365 15.6947C77.8794 15.5353 79.1106 15.369 80.3216 15.1924Z" fill="#01B567"/>
<path d="M67.7817 7.23319C66.5182 7.12549 65.2128 7.03427 63.9372 7.09325C65.1779 10.2221 66.0967 13.469 66.6753 16.7836C67.1176 16.743 67.5588 16.6972 68.0012 16.6547C67.4865 14.0636 66.6756 11.5215 65.5872 9.1147C65.5872 9.1147 67.9201 12.6667 69.1355 16.544C70.6361 16.3946 72.1334 16.2378 73.6172 16.0652C73.0056 13.1074 71.9877 10.2177 70.6126 7.52846C69.6718 7.40024 68.7229 7.31342 67.7817 7.23319Z" fill="#01B567"/>
<path d="M59.4261 8.29433C57.8502 9.23911 56.7027 10.7792 55.926 12.442C55.6452 13.0432 55.4091 13.6623 55.201 14.2916C55.807 14.4638 56.3327 14.9338 56.5955 15.5295C57.0562 14.9939 57.7269 14.6697 58.4177 14.5191C59.1086 14.3689 59.8244 14.3796 60.5299 14.4235C61.1268 14.4609 61.7571 14.5345 62.2325 14.8965C62.6157 15.1881 62.8488 15.6372 62.9593 16.1087C62.9949 16.5475 62.9729 16.9945 62.7115 17.3359C62.488 17.6286 62.129 17.7836 61.7758 17.8891C61.063 18.1026 60.3046 18.1642 59.5667 18.069C60.4547 18.2844 61.3867 18.5554 62.2699 18.3203C62.9553 18.1378 63.5951 17.6579 63.8752 17.0267C64.4269 16.9809 64.9783 16.9355 65.5307 16.8871C64.9452 13.5703 64.0095 10.3238 62.7449 7.19971C61.5725 7.35723 60.4459 7.68291 59.4261 8.29433Z" fill="#01B567"/>
<path d="M85.7765 22.2327C85.5904 20.4018 85.3268 18.5148 84.3647 16.9447C83.7304 15.9094 82.82 15.0617 82.2048 14.0151C81.3696 12.5944 81.1329 10.9078 80.5011 9.38638C79.8694 7.86498 78.5357 6.70259 76.907 6.43773C62.6979 4.12834 48.1541 3.88142 33.8745 5.70652C42.3009 5.30721 51.434 5.70579 60.0432 5.90324C64.1358 5.99703 68.2332 6.23368 72.2773 6.87001C74.5378 7.22572 76.9063 7.7701 78.5611 9.34755C80.2298 10.9386 81.1325 13.3762 81.7088 15.6064C83.7414 17.3868 84.4634 20.2362 84.644 22.9292C84.825 25.6221 84.5368 28.8276 85.1032 31.4663C86.2291 28.5605 86.0918 25.3327 85.7765 22.2327Z" fill="#01B567"/>
<path d="M31.4827 37.5994C33.8544 38.5467 36.696 38.7676 39.2237 38.3998C39.4499 36.7139 38.599 34.9973 37.2888 33.9096C35.9787 32.8219 34.2696 32.3032 32.5718 32.1545C30.874 32.0057 29.1671 32.201 27.4741 32.397C27.7399 32.5175 28.0842 32.845 28.3503 32.9655C28.3441 32.9813 28.3419 32.9985 28.336 33.0146C30.7342 33.1139 33.136 33.2615 35.5287 33.2898C33.143 33.5715 30.7349 33.9089 28.3338 34.2294C30.431 34.325 32.53 34.4423 34.6216 34.4672C32.5935 34.7068 30.5495 34.9859 28.5071 35.2614C28.5401 35.331 28.5801 35.3962 28.618 35.4632C30.3183 35.5442 32.0186 35.6248 33.7142 35.6446C32.2179 35.8212 30.7122 36.0212 29.2053 36.2238C29.3954 36.4106 29.6028 36.5791 29.8216 36.7326C30.8175 36.774 31.813 36.8099 32.8067 36.822C32.0216 36.9147 31.2331 37.015 30.4438 37.1176C30.779 37.3004 31.1295 37.4583 31.4827 37.5994Z" fill="#01B567"/>
<path d="M47.3619 16.2941C46.3609 16.367 43.5923 16.4641 40.1961 16.5718H51.514L56.289 7.07485C56.289 7.07485 49.1243 6.87336 42.3119 6.89607C39.4755 7.03015 36.4749 7.16863 33.539 7.30564C33.151 7.53753 32.7292 7.80899 32.2836 8.11048C40.8509 8.03062 50.0783 7.9427 53.9217 7.88665C49.9139 8.17825 39.8906 8.60833 30.9896 9.019C30.6412 9.27141 30.2855 9.53407 29.9254 9.8048C38.6921 9.722 48.7855 9.62383 52.6097 9.56814C48.6816 9.85389 37.7318 10.2869 28.7629 10.6928C28.4197 10.9591 28.0764 11.2284 27.7365 11.4976C36.4955 11.4145 47.595 11.3035 51.2978 11.2496C47.5678 11.5211 35.4379 11.9468 26.6914 12.334C26.3309 12.6249 25.9793 12.9113 25.6386 13.1909C34.032 13.1106 46.5165 12.9817 49.9858 12.9311C46.4838 13.1857 32.8412 13.6077 24.6941 13.9704C24.3039 14.2946 23.9376 14.6016 23.6039 14.8826C31.0773 14.8119 45.459 14.6595 48.6739 14.6126C45.4076 14.8504 29.5697 15.2764 22.7497 15.6061C22.0508 16.2014 21.626 16.5718 21.626 16.5718H21.9946C27.539 16.5201 44.444 16.3366 47.3619 16.2941Z" fill="#01B567"/>
<path d="M48.0729 38.0033C47.8013 37.981 47.5443 38.103 47.3406 38.3411C47.1479 38.5664 47.0275 38.8741 47.0022 39.2075C46.9768 39.5409 47.0488 39.8632 47.2048 40.1149C47.37 40.3812 47.609 40.5391 47.8773 40.5596C47.8971 40.5611 47.9166 40.5618 47.936 40.5618C48.1834 40.5618 48.4206 40.4428 48.6096 40.2219C48.8023 39.9966 48.9227 39.6889 48.9481 39.3555C48.9734 39.0221 48.9015 38.6998 48.7454 38.4481C48.5806 38.1814 48.3417 38.0235 48.0729 38.0033Z" fill="#01B567"/>
<path d="M47.7855 44.791C44.1011 43.781 43.8838 38.3633 45.6961 35.6604C46.341 34.6816 47.3391 33.8665 48.6283 33.7712C47.323 33.4789 45.9597 34.2478 45.1576 35.2629C43.4936 37.3529 43.259 40.4759 44.5831 42.7901C45.2218 43.9151 46.4508 44.8804 47.7855 44.791Z" fill="#01B567"/>
<path d="M81.0378 26.5338H78.6591C78.8364 25.9301 79.1543 25.3681 79.6246 24.9494C80.3888 24.2687 81.6865 23.802 83.5105 25.4802L82.2734 23.6716C81.743 22.8961 80.7409 22.5678 79.8687 22.9202C78.0457 23.6566 77.4166 26.2305 77.4166 26.2305L75.2497 33.954L75.217 33.9624C75.7772 31.7585 76.269 29.5209 76.6831 27.2983C76.9716 25.6989 77.32 23.9526 78.6738 22.8968C76.6868 24.0896 76.2701 26.7085 75.5352 28.7259C74.9707 30.3873 74.3631 32.0307 73.7163 33.6554C74.2497 31.6856 74.7306 29.6938 75.1498 27.7119C75.4894 26.0451 75.9133 24.2303 77.3641 23.1701C75.2504 24.3636 74.7548 27.0928 73.9502 29.1894C73.2549 31.1159 72.5013 33.0169 71.6978 34.8929L71.5928 34.9207C72.8669 30.188 73.9421 25.2798 76.2859 22.8766C76.1982 20.9867 75.8069 19.066 75.0423 17.3347C67.3533 18.282 59.5906 19.3708 51.9017 20.3178C59.1597 19.8719 66.5351 19.6602 73.7953 19.2184C67.0978 20.0694 60.3622 20.9933 53.6791 21.8164C60.5582 21.3937 67.5416 21.1787 74.4336 20.7815C74.4439 20.8233 74.4546 20.8651 74.4648 20.9068C68.0478 21.7274 61.6004 22.6066 55.1999 23.395C61.6077 23.0012 68.1047 22.7858 74.5357 22.4374C74.4894 22.522 74.4413 22.6052 74.3962 22.6905C68.5045 23.4514 62.593 24.2504 56.7207 24.9736C62.3445 24.6281 68.0361 24.4182 73.6921 24.1372C73.6261 24.2848 73.5603 24.4328 73.4972 24.5823C68.4076 25.2468 63.3099 25.9275 58.2416 26.5517C63.1363 26.251 68.0816 26.0513 73.0112 25.8202C72.9348 26.0293 72.8614 26.24 72.7902 26.4517C68.4417 27.0225 64.0914 27.5973 59.7624 28.1306C63.9721 27.872 68.2193 27.6888 72.462 27.4961C72.3838 27.7632 72.3097 28.031 72.2396 28.3006C68.5816 28.7813 64.9243 29.2608 61.2832 29.7096C64.8461 29.4905 68.4366 29.3275 72.0281 29.1656C71.9547 29.4872 71.8868 29.8103 71.8244 30.1341C68.8128 30.5283 65.8031 30.9188 62.8041 31.2881C65.7547 31.1068 68.7247 30.9646 71.6981 30.8295C71.6354 31.202 71.581 31.5753 71.5329 31.9486C69.1267 32.2618 66.7223 32.5714 64.3252 32.8667C66.6951 32.7209 69.0794 32.6029 71.4661 32.4908C71.3736 33.3304 71.3182 34.1686 71.2991 34.9987L55.1999 39.2574C55.1999 39.2574 55.1999 36.271 55.1999 33.7481C55.1999 31.2251 54.7146 25.2523 49.1427 25.2523C43.5703 25.2523 42.5902 30.2983 42.5902 30.2983L40.3716 39.2574C40.3716 39.2574 31.4456 39.2574 29.4853 39.2574C28.4986 39.2574 27.8261 39.5443 27.401 39.8293L25.1203 37.4576C24.268 36.5714 23.1017 36.0538 21.8713 36.0164L6.81755 35.557C5.97289 35.5314 5.16164 35.8871 4.60991 36.526L2.72163 38.7108C2.2279 38.6127 1.75584 38.2899 1.5165 37.8613C2.6372 37.1023 3.63274 36.1011 4.34965 34.9467C3.85372 34.8555 3.35742 34.7636 2.8648 34.6808C3.42644 34.6709 3.98697 34.6441 4.54714 34.6123C4.65616 34.4174 4.75748 34.2192 4.84962 34.017C3.93374 33.8426 3.01934 33.6719 2.11191 33.5187C3.11294 33.5008 4.11104 33.437 5.10878 33.3674C5.14365 33.2678 5.17742 33.1678 5.20789 33.0667C3.9209 32.8194 2.63353 32.5714 1.35902 32.3567C2.635 32.334 3.90584 32.2377 5.17742 32.1494C4.05121 31.3456 2.67905 30.7818 1.30322 30.7599C1.6079 29.5271 1.78373 28.2468 2.08804 27.014C2.56966 27.0155 3.08248 26.8858 3.56409 26.8873C3.72928 26.6426 3.88566 26.3883 4.03065 26.1264C4.2799 27.9028 4.72628 29.6879 6.02098 30.8804C7.41663 32.1659 9.45211 32.4293 11.3477 32.5458C14.6985 32.752 18.0665 32.6923 21.4066 32.3523C22.7963 32.2109 24.2566 31.9904 25.3505 31.1233C26.4562 30.2473 27.0049 28.8494 27.3379 27.4804C27.5159 26.7492 27.6466 25.989 27.5233 25.2468C27.4612 24.8732 27.3328 24.4204 27.1243 24.0559C27.3618 24.0617 27.5993 24.0727 27.8364 24.0727C28.9373 24.0727 30.0352 24.0057 31.1269 23.88C30.2724 24.3255 28.978 25.2717 28.7475 26.2286C28.6344 26.6975 28.7772 27.169 29.3532 27.5844C29.7236 27.8515 30.2048 27.8969 30.6611 27.924C32.3941 28.0273 34.1348 27.9988 35.8638 27.839C37.3641 27.7002 38.904 27.4452 40.1766 26.6397C41.449 25.8341 42.3322 24.3804 42.1082 22.8935C42.0925 22.8869 42.0763 22.8818 42.0605 22.8752L49.7638 19.7001L39.4597 22.2117C38.5596 22.1125 37.643 22.1278 36.744 22.2352C35.8098 22.3465 34.8921 22.5539 33.9898 22.8217C31.5439 23.3672 29.0503 23.584 26.5476 23.4705C26.4595 23.4302 26.3655 23.4034 26.2642 23.3965C24.595 23.2778 22.9244 23.1829 21.2531 23.1071C21.52 23.0997 21.7883 23.0891 22.0548 23.0821C16.4197 22.8876 10.7428 22.6286 5.08308 22.3967C5.08308 22.3363 5.08382 22.2762 5.08198 22.2158L5.47366 22.0604C11.4608 21.8428 17.4854 21.5318 23.4475 21.3768C18.5462 21.2076 13.6141 20.9907 8.68858 20.7845L10.0842 20.2306C15.0083 20.0309 19.9452 19.7987 24.8399 19.6715C20.8111 19.5323 16.7607 19.3598 12.7111 19.188L14.7143 18.393C18.562 18.23 22.4105 18.0655 26.2326 17.9662C23.0761 17.8574 19.9052 17.7263 16.7321 17.5922L20.6258 16.0466C15.2623 17.545 9.97007 19.2953 4.77179 21.2908C3.84711 21.6457 3.03586 22.2689 2.51239 23.1085C1.84614 24.1768 1.52898 25.4293 1.37003 26.6778C1.37003 26.6778 0.0665169 29.1531 0.00778353 31.0819C-0.0509499 33.011 0.241983 36.9861 0.241983 37.8628C0.241983 38.7394 0.710747 39.5582 1.06205 39.675C1.41334 39.7919 2.48486 39.8197 2.48486 39.8197C2.48486 39.8197 2.44852 39.9839 2.58691 40.1832C3.39193 43.5308 5.30517 45.8346 7.63872 46.1567C7.99846 46.2061 8.37031 46.2065 8.72418 46.1581L12.8605 46.1567C13.0495 46.183 13.2382 46.1959 13.4262 46.1959C15.607 46.1959 17.6748 44.4594 18.9673 41.6163C22.0897 41.8119 24.9511 41.9987 26.5733 42.1053C27.4381 42.1621 28.2677 41.7639 28.7644 41.0554L34.4788 41.0979L34.4799 41.1111C34.8609 45.6324 37.5322 49.0661 40.9762 49.4614C41.1905 49.4859 41.4089 49.4984 41.6274 49.4984C41.8439 49.4984 42.0605 49.4863 42.2742 49.4625H47.2665C47.4893 49.4878 47.711 49.5002 47.9317 49.5002C51.7838 49.5002 55.2524 45.735 55.9943 40.5854L56.0024 40.529L72.4297 36.5865C72.9304 39.5424 74.1991 41.4522 75.6637 41.4522H81.0386C82.9709 41.4522 84.4847 38.176 84.4847 33.9939C84.484 29.8099 82.9705 26.5338 81.0378 26.5338ZM25.9048 24.8006C25.9301 24.8501 25.9584 24.9182 25.9867 24.9948C19.5157 25.1575 13.0297 25.3421 6.58996 25.4571C13.0547 25.7374 19.5774 26.1718 26.0762 26.5433C26.041 26.7485 25.9958 26.951 25.9492 27.143C25.9448 27.1617 25.9393 27.1785 25.9349 27.1969C20.0392 27.3474 14.1361 27.5093 8.27047 27.6141C13.9823 27.8618 19.7385 28.2285 25.4845 28.5662C25.3406 28.8959 25.1798 29.1787 25.0043 29.422C19.9779 29.5517 14.9507 29.6821 9.95098 29.7715C14.4518 29.9667 18.9805 30.2367 23.5099 30.5074C22.8294 30.7489 22.0387 30.8529 21.2627 30.9317C18.0397 31.2595 14.7337 31.3233 11.4369 31.1203C9.74284 31.0159 8.0315 30.7877 6.99192 29.8305C5.85286 28.7813 5.54964 26.9272 5.32609 24.9508C5.35472 24.838 5.45053 24.6175 5.52395 24.4512C12.2985 24.2112 19.1486 24.3288 25.9048 24.8006ZM5.07978 22.6209C5.17412 22.7572 5.26515 22.8957 5.35803 23.0331C5.25561 23.0367 5.15319 23.0393 5.05078 23.0433C5.06472 22.903 5.07464 22.762 5.07978 22.6209ZM54.5461 36.6667V36.8729C54.5304 36.8055 54.5142 36.7385 54.4969 36.6714L54.5461 36.6667ZM43.5289 34.7192L43.7278 34.3936C45.1352 32.0893 47.2493 30.861 49.3699 31.1035C51.3933 31.3357 53.0995 32.8956 53.9779 35.2054C53.8924 35.0211 53.8017 34.8394 53.7029 34.6621C52.8785 33.1758 51.3063 31.9003 49.5501 31.9567C54.5146 33.0931 54.9356 40.5883 52.4108 44.1374C51.5093 45.4745 50.1118 46.5186 48.432 46.5791C50.1488 46.9007 51.8877 45.89 52.9306 44.5576C51.5757 46.597 49.5615 47.7792 47.4761 47.5399C44.799 47.2326 42.7224 44.6591 42.3083 41.1364L42.3024 41.0884L43.5289 34.7192ZM81.0378 41.1649C79.2957 41.1649 77.878 37.947 77.878 33.9921C77.878 30.0367 79.2953 26.8192 81.0378 26.8192C82.7804 26.8192 84.1981 30.0371 84.1981 33.9921C84.1981 37.9474 82.7804 41.1649 81.0378 41.1649Z" fill="#01B567"/>
<path d="M81.2184 27.7617C82.3343 27.9888 82.657 29.6011 82.9 30.5495C83.3412 32.8069 83.3405 35.1771 82.8993 37.4341C82.6585 38.3771 82.331 39.9992 81.2184 40.222C81.8509 40.2692 82.3259 39.6919 82.6331 39.2061C84.0376 36.645 84.0567 33.2172 83.3313 30.4422C83.0255 29.4754 82.4393 27.765 81.2184 27.7617Z" fill="#01B567"/>
<path d="M81.8164 33.9921C81.8164 33.307 81.6112 32.6135 81.2188 32.6135C80.8264 32.6135 80.6212 33.307 80.6212 33.9921C80.6212 34.6771 80.8264 35.3706 81.2188 35.3706C81.6112 35.3706 81.8164 34.6771 81.8164 33.9921Z" fill="#01B567"/>
<path d="M80.5727 29.3531C80.3477 29.3219 80.1172 29.4293 79.9402 29.574C78.3438 31.1309 78.3625 34.6287 78.944 36.6479C79.1918 37.3865 79.6359 38.6364 80.5724 38.6306C78.6679 38.1287 78.875 30.9184 80.0504 29.6875C80.181 29.53 80.3492 29.3853 80.5727 29.3531Z" fill="#01B567"/>
<path d="M110.318 22.5H104.65V5.77273H110.433C112.093 5.77273 113.52 6.1076 114.712 6.77734C115.91 7.44164 116.83 8.39725 117.473 9.64418C118.116 10.8911 118.437 12.383 118.437 14.12C118.437 15.8625 118.113 17.3598 117.465 18.6122C116.822 19.8646 115.894 20.8256 114.68 21.4954C113.471 22.1651 112.017 22.5 110.318 22.5ZM107.68 19.8782H110.171C111.336 19.8782 112.308 19.6658 113.087 19.2411C113.866 18.811 114.451 18.1712 114.843 17.3217C115.235 16.4669 115.431 15.3996 115.431 14.12C115.431 12.8404 115.235 11.7786 114.843 10.9347C114.451 10.0852 113.871 9.45088 113.103 9.03161C112.341 8.60689 111.394 8.39453 110.261 8.39453H107.68V19.8782ZM121.185 22.5V9.95455H124.052V12.0455H124.183C124.411 11.3213 124.803 10.7631 125.359 10.3711C125.92 9.9736 126.559 9.77486 127.278 9.77486C127.442 9.77486 127.624 9.78302 127.825 9.79936C128.032 9.81025 128.204 9.82931 128.34 9.85653V12.5763C128.215 12.5328 128.016 12.4947 127.744 12.462C127.477 12.4239 127.218 12.4048 126.968 12.4048C126.429 12.4048 125.944 12.5219 125.514 12.756C125.089 12.9847 124.754 13.3033 124.509 13.7116C124.264 14.12 124.142 14.591 124.142 15.1246V22.5H121.185ZM130.304 22.5V9.95455H133.261V22.5H130.304ZM131.791 8.17401C131.323 8.17401 130.92 8.01882 130.582 7.70845C130.244 7.39264 130.076 7.0142 130.076 6.57315C130.076 6.12666 130.244 5.74822 130.582 5.43785C130.92 5.12204 131.323 4.96413 131.791 4.96413C132.265 4.96413 132.667 5.12204 133 5.43785C133.337 5.74822 133.506 6.12666 133.506 6.57315C133.506 7.0142 133.337 7.39264 133 7.70845C132.667 8.01882 132.265 8.17401 131.791 8.17401ZM147.507 9.95455L143.04 22.5H139.773L135.305 9.95455H138.458L141.341 19.2738H141.472L144.363 9.95455H147.507ZM154.681 22.745C153.423 22.745 152.336 22.4837 151.422 21.9609C150.512 21.4328 149.813 20.6868 149.323 19.723C148.833 18.7538 148.588 17.613 148.588 16.3008C148.588 15.0103 148.833 13.8777 149.323 12.9031C149.818 11.9229 150.51 11.1606 151.397 10.6161C152.285 10.0662 153.327 9.79119 154.525 9.79119C155.299 9.79119 156.028 9.91643 156.714 10.1669C157.406 10.4119 158.016 10.7931 158.544 11.3104C159.077 11.8277 159.497 12.4865 159.802 13.2869C160.107 14.0819 160.259 15.0294 160.259 16.1293V17.0359H149.976V15.043H157.425C157.419 14.4767 157.297 13.973 157.057 13.532C156.818 13.0855 156.483 12.7343 156.053 12.4783C155.628 12.2224 155.133 12.0945 154.566 12.0945C153.962 12.0945 153.431 12.2415 152.974 12.5355C152.516 12.8241 152.16 13.2053 151.904 13.679C151.653 14.1473 151.525 14.6618 151.52 15.2227V16.9624C151.52 17.692 151.653 18.3182 151.92 18.8409C152.187 19.3582 152.56 19.7557 153.039 20.0334C153.518 20.3056 154.079 20.4418 154.721 20.4418C155.152 20.4418 155.541 20.3819 155.889 20.2621C156.238 20.1368 156.54 19.9544 156.796 19.7148C157.052 19.4753 157.245 19.1785 157.376 18.8246L160.137 19.1349C159.962 19.8646 159.63 20.5017 159.14 21.0462C158.655 21.5852 158.035 22.0045 157.278 22.304C156.521 22.598 155.655 22.745 154.681 22.745ZM162.76 22.5V9.95455H165.627V12.0455H165.758C165.987 11.3213 166.379 10.7631 166.934 10.3711C167.495 9.9736 168.135 9.77486 168.853 9.77486C169.017 9.77486 169.199 9.78302 169.401 9.79936C169.608 9.81025 169.779 9.82931 169.915 9.85653V12.5763C169.79 12.5328 169.591 12.4947 169.319 12.462C169.052 12.4239 168.794 12.4048 168.543 12.4048C168.004 12.4048 167.519 12.5219 167.089 12.756C166.665 12.9847 166.33 13.3033 166.085 13.7116C165.84 14.12 165.717 14.591 165.717 15.1246V22.5H162.76ZM111.335 36.8807L109.98 37.2642C109.895 37.0384 109.769 36.8189 109.603 36.6058C109.441 36.3885 109.219 36.2095 108.938 36.0689C108.657 35.9283 108.297 35.858 107.858 35.858C107.257 35.858 106.756 35.9964 106.356 36.2734C105.96 36.5462 105.761 36.8935 105.761 37.3153C105.761 37.6903 105.898 37.9865 106.17 38.2038C106.443 38.4212 106.869 38.6023 107.449 38.7472L108.906 39.1051C109.784 39.3182 110.438 39.6442 110.869 40.0831C111.299 40.5178 111.514 41.0781 111.514 41.7642C111.514 42.3267 111.352 42.8295 111.028 43.2727C110.709 43.7159 110.261 44.0653 109.686 44.321C109.111 44.5767 108.442 44.7045 107.679 44.7045C106.678 44.7045 105.849 44.4872 105.192 44.0526C104.536 43.6179 104.121 42.983 103.946 42.1477L105.378 41.7898C105.514 42.3182 105.772 42.7145 106.151 42.9787C106.535 43.2429 107.036 43.375 107.653 43.375C108.357 43.375 108.915 43.2259 109.328 42.9276C109.746 42.625 109.955 42.2628 109.955 41.8409C109.955 41.5 109.835 41.2145 109.597 40.9844C109.358 40.75 108.991 40.5753 108.497 40.4602L106.861 40.0767C105.962 39.8636 105.301 39.5334 104.879 39.0859C104.462 38.6342 104.253 38.0696 104.253 37.392C104.253 36.8381 104.408 36.348 104.719 35.9219C105.035 35.4957 105.463 35.1612 106.004 34.9183C106.55 34.6754 107.168 34.554 107.858 34.554C108.83 34.554 109.592 34.767 110.146 35.1932C110.705 35.6193 111.101 36.1818 111.335 36.8807ZM120.601 44.7045C119.655 44.7045 118.839 44.4957 118.153 44.0781C117.471 43.6562 116.945 43.0682 116.574 42.3139C116.208 41.5554 116.025 40.6733 116.025 39.6676C116.025 38.6619 116.208 37.7756 116.574 37.0085C116.945 36.2372 117.461 35.6364 118.121 35.206C118.786 34.7713 119.562 34.554 120.448 34.554C120.959 34.554 121.464 34.6392 121.963 34.8097C122.462 34.9801 122.915 35.2571 123.324 35.6406C123.734 36.0199 124.06 36.5227 124.302 37.1491C124.545 37.7756 124.667 38.5469 124.667 39.4631V40.1023H117.099V38.7983H123.133C123.133 38.2443 123.022 37.75 122.8 37.3153C122.583 36.8807 122.272 36.5376 121.867 36.2862C121.467 36.0348 120.994 35.9091 120.448 35.9091C119.847 35.9091 119.327 36.0582 118.888 36.3565C118.454 36.6506 118.119 37.0341 117.885 37.5071C117.65 37.9801 117.533 38.4872 117.533 39.0284V39.8977C117.533 40.6392 117.661 41.2678 117.917 41.7834C118.177 42.2947 118.537 42.6847 118.997 42.9531C119.457 43.2173 119.992 43.3494 120.601 43.3494C120.998 43.3494 121.356 43.294 121.675 43.1832C121.999 43.0682 122.278 42.8977 122.513 42.6719C122.747 42.4418 122.928 42.1562 123.056 41.8153L124.513 42.2244C124.36 42.7188 124.102 43.1534 123.74 43.5284C123.378 43.8991 122.93 44.1889 122.398 44.3977C121.865 44.6023 121.266 44.7045 120.601 44.7045ZM129.662 44.5V34.6818H131.119V36.1648H131.221C131.4 35.679 131.724 35.2848 132.193 34.9822C132.662 34.6797 133.19 34.5284 133.778 34.5284C133.889 34.5284 134.027 34.5305 134.194 34.5348C134.36 34.5391 134.485 34.5455 134.571 34.554V36.0881C134.519 36.0753 134.402 36.0561 134.219 36.0305C134.04 36.0007 133.85 35.9858 133.65 35.9858C133.173 35.9858 132.747 36.0859 132.372 36.2862C132.001 36.4822 131.707 36.755 131.49 37.1044C131.277 37.4496 131.17 37.8437 131.17 38.2869V44.5H129.662ZM147.386 34.6818L143.755 44.5H142.221L138.591 34.6818H140.227L142.937 42.5057H143.039L145.75 34.6818H147.386ZM152.077 44.5V34.6818H153.586V44.5H152.077ZM152.844 33.0455C152.55 33.0455 152.297 32.9453 152.084 32.745C151.875 32.5447 151.77 32.304 151.77 32.0227C151.77 31.7415 151.875 31.5007 152.084 31.3004C152.297 31.1001 152.55 31 152.844 31C153.138 31 153.39 31.1001 153.598 31.3004C153.812 31.5007 153.918 31.7415 153.918 32.0227C153.918 32.304 153.812 32.5447 153.598 32.745C153.39 32.9453 153.138 33.0455 152.844 33.0455ZM163.037 44.7045C162.117 44.7045 161.324 44.4872 160.659 44.0526C159.995 43.6179 159.483 43.0192 159.125 42.2564C158.767 41.4936 158.588 40.6222 158.588 39.642C158.588 38.6449 158.772 37.7649 159.138 37.0021C159.509 36.2351 160.025 35.6364 160.685 35.206C161.35 34.7713 162.125 34.554 163.012 34.554C163.702 34.554 164.324 34.6818 164.878 34.9375C165.432 35.1932 165.886 35.5511 166.24 36.0114C166.593 36.4716 166.813 37.0085 166.898 37.6222H165.39C165.275 37.1747 165.019 36.7784 164.623 36.4332C164.23 36.0838 163.702 35.9091 163.037 35.9091C162.449 35.9091 161.934 36.0625 161.49 36.3693C161.051 36.6719 160.708 37.1001 160.461 37.6541C160.218 38.2038 160.097 38.8494 160.097 39.5909C160.097 40.3494 160.216 41.0099 160.455 41.5724C160.698 42.1349 161.039 42.5717 161.478 42.8828C161.921 43.1939 162.441 43.3494 163.037 43.3494C163.429 43.3494 163.785 43.2812 164.105 43.1449C164.424 43.0085 164.695 42.8125 164.917 42.5568C165.138 42.3011 165.296 41.9943 165.39 41.6364H166.898C166.813 42.2159 166.602 42.7379 166.265 43.2024C165.933 43.6626 165.492 44.0291 164.942 44.3018C164.397 44.5703 163.762 44.7045 163.037 44.7045ZM175.92 44.7045C174.974 44.7045 174.158 44.4957 173.472 44.0781C172.79 43.6562 172.264 43.0682 171.893 42.3139C171.526 41.5554 171.343 40.6733 171.343 39.6676C171.343 38.6619 171.526 37.7756 171.893 37.0085C172.264 36.2372 172.779 35.6364 173.44 35.206C174.104 34.7713 174.88 34.554 175.766 34.554C176.278 34.554 176.783 34.6392 177.281 34.8097C177.78 34.9801 178.234 35.2571 178.643 35.6406C179.052 36.0199 179.378 36.5227 179.621 37.1491C179.864 37.7756 179.985 38.5469 179.985 39.4631V40.1023H172.417V38.7983H178.451C178.451 38.2443 178.34 37.75 178.119 37.3153C177.901 36.8807 177.59 36.5376 177.185 36.2862C176.785 36.0348 176.312 35.9091 175.766 35.9091C175.166 35.9091 174.646 36.0582 174.207 36.3565C173.772 36.6506 173.438 37.0341 173.203 37.5071C172.969 37.9801 172.852 38.4872 172.852 39.0284V39.8977C172.852 40.6392 172.979 41.2678 173.235 41.7834C173.495 42.2947 173.855 42.6847 174.315 42.9531C174.776 43.2173 175.31 43.3494 175.92 43.3494C176.316 43.3494 176.674 43.294 176.994 43.1832C177.318 43.0682 177.597 42.8977 177.831 42.6719C178.065 42.4418 178.247 42.1562 178.374 41.8153L179.832 42.2244C179.678 42.7188 179.421 43.1534 179.058 43.5284C178.696 43.8991 178.249 44.1889 177.716 44.3977C177.183 44.6023 176.585 44.7045 175.92 44.7045Z" fill="white"/>
</svg>
